<?xml version="1.0" encoding="UTF-8" standalone="no"?>
<!-- Created with Inkscape (http://www.inkscape.org/) -->

<svg
   width="480"
   height="80"
   viewBox="0 0 127 21.166667"
   version="1.1"
   id="svg1"
   xmlns:xlink="http://www.w3.org/1999/xlink"
   xmlns="http://www.w3.org/2000/svg"
   xmlns:svg="http://www.w3.org/2000/svg">
  <defs
     id="defs1">
    <linearGradient
       id="linearGradient6743">
      <stop
         style="stop-color:#990cdc;stop-opacity:1;"
         offset="0"
         id="stop6742" />
      <stop
         style="stop-color:#b356df;stop-opacity:1;"
         offset="0.43438077"
         id="stop6745" />
      <stop
         style="stop-color:#dd93ff;stop-opacity:1;"
         offset="1"
         id="stop6743" />
    </linearGradient>
    <radialGradient
       xlink:href="#linearGradient6743"
       id="radialGradient6741-9"
       cx="71.251907"
       cy="240.06306"
       fx="71.251907"
       fy="240.06306"
       r="5.5008774"
       gradientTransform="matrix(1.2283321,-2.5889035,1.3570572,0.643863,-166.72049,174.63274)"
       gradientUnits="userSpaceOnUse" />
  </defs>
  <g
     id="layer3"
     transform="translate(0.00224852,-94.310059)">
    <path
       style="fill:url(#radialGradient6741-9);fill-opacity:1;fill-rule:nonzero;stroke:none;stroke-width:0.264583px;stroke-linecap:butt;stroke-linejoin:miter;stroke-opacity:1"
       d="m 239.81809,135.75604 c -0.0719,1.65641 -0.10329,2.35794 -0.10329,6.98405 0,4.62611 0.73488,6.80664 0.73488,6.80664 0,0 0.95054,2.63483 4.75862,2.34919 3.99724,-0.29981 5.68626,-1.73478 5.4935,-5.10799 -0.19275,-3.3732 -3.21414,-5.12957 -5.83082,-4.40925 -2.14439,0.59031 -2.30336,1.61161 -1.8914,1.91549 0.31004,0.2287 2.42148,-0.97582 4.05989,0.46984 1.63841,1.44566 1.6002,3.8496 -0.9056,4.42786 -2.50581,0.57826 -4.51919,-0.80321 -4.6502,-4.92728 -0.14815,-4.66353 0.49254,-7.9487 0.51424,-8.9801 0.0149,-0.70938 -0.32113,-1.50241 -0.8994,-1.59878 -0.57826,-0.0964 -1.24725,1.30566 -1.28042,2.07033 z"
       id="path1-0-8-1-9"
       transform="translate(-238.12953,-38.312577)" />
    <g
       id="text6755"
       style="font-size:14.8167px;line-height:1.25;text-align:center;text-anchor:middle;fill:#ffffff;stroke-width:0.264583"
       transform="translate(-238.12953,-38.312577)"
       aria-label="brushtail.digital">
      <path
         style="font-family:'Noto Sans';-inkscape-font-specification:'Noto Sans'"
         d="m 257.42288,139.06791 q 0,0.50376 -0.0296,0.94827 -0.0148,0.42968 -0.0445,0.68156 h 0.0741 q 0.34078,-0.50376 0.93345,-0.84455 0.59267,-0.34078 1.52612,-0.34078 1.48167,0 2.37067,1.03717 0.90382,1.02235 0.90382,3.06705 0,1.36314 -0.41487,2.28178 -0.40005,0.91863 -1.14088,1.37795 -0.74084,0.45932 -1.71874,0.45932 -0.93345,0 -1.52612,-0.34079 -0.59267,-0.34078 -0.93345,-0.81492 h -0.10372 l -0.2667,1.00754 h -0.93345 v -11.26069 h 1.30387 z m 2.23732,1.52612 q -0.84455,0 -1.3335,0.32596 -0.48895,0.31115 -0.69639,0.97791 -0.20743,0.65193 -0.20743,1.67428 v 0.0593 q 0,1.46685 0.47413,2.25214 0.48895,0.77047 1.79282,0.77047 1.06681,0 1.58539,-0.78529 0.5334,-0.78528 0.5334,-2.26695 0,-1.49649 -0.5334,-2.25214 -0.51858,-0.75565 -1.61502,-0.75565 z m 9.27525,-1.09644 q 0.22225,0 0.47414,0.0296 0.2667,0.0148 0.45931,0.0593 l -0.16298,1.20015 q -0.19262,-0.0445 -0.42968,-0.0741 -0.22225,-0.0296 -0.42969,-0.0296 -0.45932,0 -0.87418,0.19261 -0.41487,0.19262 -0.74084,0.54822 -0.32597,0.34079 -0.51858,0.82974 -0.1778,0.48895 -0.1778,1.09643 v 4.23758 h -1.30387 v -7.94175 h 1.0668 l 0.14817,1.45203 h 0.0593 q 0.25189,-0.4445 0.60749,-0.8001 0.3556,-0.37041 0.81492,-0.57785 0.45931,-0.22225 1.00753,-0.22225 z"
         id="path6759" />
      <path
         style="font-family:'Noto Sans';-inkscape-font-specification:'Noto Sans';letter-spacing:-0.264583px"
         d="m 277.98846,139.64576 v 7.94175 h -1.06681 l -0.19261,-1.05199 h -0.0593 q -0.25188,0.41487 -0.65193,0.68157 -0.40006,0.2667 -0.87419,0.38524 -0.47413,0.13335 -0.99272,0.13335 -0.94827,0 -1.6002,-0.29634 -0.63712,-0.31115 -0.96309,-0.94827 -0.32596,-0.63711 -0.32596,-1.64465 v -5.20066 h 1.31868 v 5.11176 q 0,0.94827 0.42969,1.4224 0.42968,0.47414 1.3335,0.47414 0.889,0 1.39277,-0.32597 0.51858,-0.34078 0.72602,-0.9779 0.22225,-0.65194 0.22225,-1.57057 v -4.13386 z m 7.42528,5.74888 q 0,0.77047 -0.38523,1.28905 -0.38524,0.51858 -1.09644,0.78529 -0.7112,0.2667 -1.6891,0.2667 -0.82974,0 -1.43722,-0.13335 -0.59267,-0.13335 -1.05199,-0.37042 v -1.18534 q 0.47414,0.23707 1.14089,0.4445 0.68157,0.19262 1.37795,0.19262 0.99272,0 1.43722,-0.31115 0.4445,-0.32597 0.4445,-0.85937 0,-0.29633 -0.16298,-0.5334 -0.16298,-0.23707 -0.59267,-0.47413 -0.41487,-0.23707 -1.20015,-0.53341 -0.77047,-0.29633 -1.31869,-0.59266 -0.54822,-0.29634 -0.84455,-0.71121 -0.29633,-0.41486 -0.29633,-1.0668 0,-1.00753 0.81492,-1.55575 0.82973,-0.54822 2.16323,-0.54822 0.72602,0 1.34832,0.14817 0.63712,0.13335 1.18534,0.38523 l -0.4445,1.03717 q -0.50377,-0.20743 -1.05199,-0.3556 -0.54822,-0.14817 -1.12607,-0.14817 -0.8001,0 -1.22978,0.2667 -0.41487,0.25189 -0.41487,0.69639 0,0.32597 0.19262,0.56303 0.19261,0.22225 0.63711,0.4445 0.45932,0.20744 1.21497,0.50377 0.75566,0.28152 1.28906,0.57785 0.5334,0.29634 0.81492,0.72602 0.28151,0.41487 0.28151,1.05199 z m 2.96546,-5.7637 q 0,0.28152 -0.0296,0.57785 -0.0148,0.29634 -0.0445,0.5334 h 0.0889 q 0.25188,-0.41486 0.63712,-0.68156 0.38523,-0.26671 0.85936,-0.40006 0.47414,-0.14816 0.97791,-0.14816 0.96308,0 1.6002,0.31115 0.65194,0.29633 0.9779,0.93345 0.32597,0.63712 0.32597,1.65947 v 5.17103 h -1.28905 v -5.08213 q 0,-0.96308 -0.42969,-1.43722 -0.42968,-0.47413 -1.34832,-0.47413 -0.889,0 -1.39277,0.34078 -0.50376,0.32597 -0.72602,0.9779 -0.20743,0.63712 -0.20743,1.57057 v 4.10423 h -1.30387 v -11.26069 h 1.30387 z"
         id="path6760" />
      <path
         style="font-family:'Noto Sans';-inkscape-font-specification:'Noto Sans';letter-spacing:0.264583px"
         d="m 298.61966,146.66887 q 0.29633,0 0.60748,-0.0445 0.31116,-0.0593 0.50377,-0.11853 v 0.99272 q -0.20743,0.10372 -0.59267,0.16298 -0.38523,0.0741 -0.74083,0.0741 -0.6223,0 -1.1557,-0.20744 -0.51859,-0.22225 -0.84455,-0.75565 -0.32597,-0.5334 -0.32597,-1.49649 v -4.62281 h -1.12607 v -0.6223 l 1.14088,-0.51858 0.51859,-1.68911 h 0.77047 v 1.82246 h 2.29659 v 1.00753 h -2.29659 v 4.59318 q 0,0.72602 0.34078,1.08162 0.3556,0.34078 0.90382,0.34078 z m 5.96901,-7.15646 q 1.45204,0 2.14842,0.63712 0.69639,0.63711 0.69639,2.02988 v 5.4081 h -0.94827 l -0.25188,-1.12607 h -0.0593 q -0.34079,0.42968 -0.7112,0.72602 -0.3556,0.28152 -0.82974,0.41487 -0.45932,0.13335 -1.12607,0.13335 -0.7112,0 -1.28905,-0.25189 -0.56303,-0.25188 -0.889,-0.77047 -0.32597,-0.5334 -0.32597,-1.3335 0,-1.18534 0.93345,-1.82245 0.93345,-0.65194 2.87444,-0.7112 l 1.34832,-0.0445 v -0.47414 q 0,-0.99272 -0.42968,-1.37795 -0.42969,-0.38524 -1.21497,-0.38524 -0.6223,0 -1.18534,0.19262 -0.56303,0.1778 -1.05198,0.41487 l -0.40005,-0.9779 q 0.51858,-0.28152 1.22978,-0.47414 0.7112,-0.20743 1.48167,-0.20743 z m 0.38524,4.23757 q -1.48167,0.0593 -2.05953,0.47414 -0.56303,0.41487 -0.56303,1.17052 0,0.66675 0.40005,0.9779 0.41487,0.31115 1.05199,0.31115 1.00753,0 1.67428,-0.54822 0.66676,-0.56303 0.66676,-1.71873 v -0.71121 z m 6.4876,-4.10422 v 7.94175 h -1.30387 v -7.94175 z m -0.63711,-2.97816 q 0.29633,0 0.51858,0.20744 0.23707,0.19261 0.23707,0.6223 0,0.41486 -0.23707,0.6223 -0.22225,0.20743 -0.51858,0.20743 -0.32597,0 -0.54822,-0.20743 -0.22225,-0.20744 -0.22225,-0.6223 0,-0.42969 0.22225,-0.6223 0.22225,-0.20744 0.54822,-0.20744 z m 4.7244,10.91991 h -1.30387 v -11.26069 h 1.30387 z"
         id="path6761" />
      <path
         style="font-weight:300;font-family:'Noto Sans';-inkscape-font-specification:'Noto Sans Light';letter-spacing:0.264583px"
         d="m 318.24331,147.02447 q 0,-0.37041 0.16299,-0.54821 0.16298,-0.1778 0.45931,-0.1778 0.32597,0 0.48896,0.1778 0.1778,0.1778 0.1778,0.54821 0,0.35561 -0.1778,0.54822 -0.16299,0.1778 -0.48896,0.1778 -0.29633,0 -0.45931,-0.1778 -0.16299,-0.19261 -0.16299,-0.54822 z m 6.8432,0.71121 q -1.58539,0 -2.44476,-1.00754 -0.84455,-1.02235 -0.84455,-2.99297 0,-2.04471 0.889,-3.11151 0.90382,-1.0668 2.47439,-1.0668 0.66675,0 1.1557,0.20743 0.48895,0.19262 0.82974,0.5334 0.3556,0.34079 0.54821,0.77047 h 0.0593 q -0.0148,-0.3556 -0.0444,-0.77047 -0.0148,-0.42968 -0.0148,-0.77047 v -3.2004 h 0.84456 v 11.26069 h -0.68157 l -0.11854,-1.37795 h -0.0445 q -0.20743,0.41486 -0.54821,0.77046 -0.34079,0.34079 -0.84456,0.54822 -0.50376,0.20744 -1.21496,0.20744 z m 0.10371,-0.72602 q 1.37796,0 1.94099,-0.82974 0.57785,-0.82973 0.57785,-2.4003 v -0.13335 q 0,-1.62984 -0.57785,-2.48921 -0.56303,-0.87418 -1.88172,-0.87418 -1.27424,0 -1.92617,0.90381 -0.65194,0.88901 -0.65194,2.56329 0,1.60021 0.6223,2.42994 0.62231,0.82974 1.89654,0.82974 z m 7.03582,-7.30464 v 7.88249 h -0.82973 v -7.88249 z m -0.41486,-2.91889 q 0.28151,0 0.42968,0.17781 0.14817,0.16298 0.14817,0.45931 0,0.31115 -0.14817,0.48895 -0.14817,0.16299 -0.42968,0.16299 -0.2667,0 -0.41487,-0.16299 -0.14817,-0.1778 -0.14817,-0.48895 0,-0.29633 0.14817,-0.45931 0.14817,-0.17781 0.41487,-0.17781 z m 6.19126,2.77073 q 0.93345,0 1.54094,0.37042 0.60748,0.3556 0.9779,0.9779 h 0.0593 l 0.11854,-1.20016 h 0.68157 v 8.13437 q 0,1.03717 -0.3556,1.76319 -0.35561,0.74084 -1.11126,1.14089 -0.74083,0.40005 -1.94098,0.40005 -0.87419,0 -1.57057,-0.14817 -0.68157,-0.14817 -1.22979,-0.38523 v -0.81492 q 0.54822,0.28151 1.27424,0.4445 0.72601,0.1778 1.57057,0.1778 1.30386,0 1.91135,-0.68157 0.6223,-0.68157 0.6223,-1.83727 v -0.47413 q 0,-0.31116 0,-0.62231 0.0148,-0.32596 0.0296,-0.60748 h -0.0444 q -0.34078,0.75565 -1.00753,1.1557 -0.66675,0.38524 -1.62984,0.38524 -1.52612,0 -2.38549,-1.03717 -0.85937,-1.03717 -0.85937,-2.97816 0,-1.92617 0.85937,-3.03742 0.87419,-1.12607 2.48921,-1.12607 z m 0.0889,0.72602 q -0.85937,0 -1.43722,0.41486 -0.56304,0.40005 -0.84455,1.17052 -0.28152,0.75565 -0.28152,1.85209 0,1.61502 0.63712,2.45957 0.63712,0.84455 1.82245,0.84455 0.75565,0 1.2446,-0.22225 0.48896,-0.23706 0.77047,-0.65193 0.29634,-0.41487 0.41487,-0.9779 0.13335,-0.57785 0.13335,-1.22979 v -0.51858 q 0,-1.00754 -0.23707,-1.70392 -0.23706,-0.69639 -0.78528,-1.06681 -0.5334,-0.37041 -1.43722,-0.37041 z m 6.99138,-0.57786 v 7.88249 h -0.82974 v -7.88249 z m -0.41487,-2.91889 q 0.28152,0 0.42969,0.17781 0.14816,0.16298 0.14816,0.45931 0,0.31115 -0.14816,0.48895 -0.14817,0.16299 -0.42969,0.16299 -0.2667,0 -0.41487,-0.16299 -0.14816,-0.1778 -0.14816,-0.48895 0,-0.29633 0.14816,-0.45931 0.14817,-0.17781 0.41487,-0.17781 z m 5.52451,10.23834 q 0.32597,0 0.6223,-0.0445 0.29634,-0.0593 0.51859,-0.13335 v 0.68157 q -0.22225,0.0889 -0.56304,0.14817 -0.32596,0.0593 -0.69638,0.0593 -0.65194,0 -1.11125,-0.23707 -0.45932,-0.25188 -0.71121,-0.77047 -0.23706,-0.51858 -0.23706,-1.3335 v -5.00805 h -1.15571 v -0.47413 l 1.15571,-0.2667 0.31115,-1.82246 h 0.5334 v 1.88172 h 2.42994 v 0.68157 h -2.42994 v 4.97841 q 0,0.81492 0.32597,1.24461 0.32596,0.41486 1.00753,0.41486 z m 5.8653,-7.4528 q 1.3335,0 1.98544,0.65194 0.65193,0.65193 0.65193,2.07434 v 5.28956 h -0.63712 l -0.14817,-1.3335 h -0.0444 q -0.28151,0.4445 -0.65193,0.78528 -0.3556,0.32597 -0.87419,0.51859 -0.50376,0.1778 -1.2446,0.1778 -0.74083,0 -1.28905,-0.25189 -0.54822,-0.2667 -0.84455,-0.75565 -0.29634,-0.48895 -0.29634,-1.20015 0,-1.17052 0.96309,-1.77801 0.96308,-0.6223 2.80035,-0.7112 l 1.43722,-0.0593 v -0.56304 q 0,-1.17052 -0.47413,-1.64465 -0.45932,-0.48895 -1.37795,-0.48895 -0.60749,0 -1.17052,0.16298 -0.54822,0.14817 -1.11125,0.42968 l -0.26671,-0.66675 q 0.54822,-0.28151 1.21497,-0.45932 0.66676,-0.1778 1.37796,-0.1778 z m 0.45931,4.08941 q -1.49648,0.0741 -2.23732,0.5334 -0.74083,0.44451 -0.74083,1.34832 0,0.72602 0.45932,1.11126 0.45931,0.37041 1.2446,0.37041 1.25942,0 1.92617,-0.69638 0.68157,-0.69639 0.69638,-1.9558 v -0.77047 z m 5.80602,3.92643 h -0.84455 v -11.26069 h 0.84455 z"
         id="path6762" />
    </g>
  </g>
</svg>
