<?xml version="1.0" encoding="UTF-8" standalone="no"?>
<!-- Created with Inkscape (http://www.inkscape.org/) -->

<svg
   width="480"
   height="80"
   viewBox="0 0 127 21.166667"
   version="1.1"
   id="svg1"
   xmlns:xlink="http://www.w3.org/1999/xlink"
   xmlns="http://www.w3.org/2000/svg"
   xmlns:svg="http://www.w3.org/2000/svg">
  <defs
     id="defs1">
    <linearGradient
       id="linearGradient6740">
      <stop
         style="stop-color:#660e8e;stop-opacity:1;"
         offset="0"
         id="stop6740" />
      <stop
         style="stop-color:#8e2cbb;stop-opacity:1;"
         offset="0.38632163"
         id="stop6744" />
      <stop
         style="stop-color:#e09dff;stop-opacity:1;"
         offset="1"
         id="stop6741" />
    </linearGradient>
    <radialGradient
       xlink:href="#linearGradient6740"
       id="radialGradient6741"
       cx="71.251907"
       cy="240.06306"
       fx="71.251907"
       fy="240.06306"
       r="5.5008774"
       gradientTransform="matrix(1.2283321,-2.5889035,1.3570572,0.643863,-166.18866,151.24359)"
       gradientUnits="userSpaceOnUse" />
  </defs>
  <g
     id="layer2"
     transform="translate(-238.12995,-108.96892)">
    <path
       style="fill:url(#radialGradient6741);fill-opacity:1;fill-rule:nonzero;stroke:none;stroke-width:0.264583px;stroke-linecap:butt;stroke-linejoin:miter;stroke-opacity:1"
       d="m 240.34992,112.36689 c -0.0718,1.65641 -0.10329,2.35794 -0.10329,6.98405 0,4.62611 0.73488,6.80664 0.73488,6.80664 0,0 0.95054,2.63483 4.75862,2.34919 3.99724,-0.29981 5.68626,-1.73478 5.4935,-5.10799 -0.19275,-3.3732 -3.21414,-5.12957 -5.83082,-4.40925 -2.14439,0.59031 -2.30336,1.61161 -1.8914,1.91549 0.31004,0.2287 2.42148,-0.97582 4.05989,0.46984 1.63841,1.44566 1.6002,3.8496 -0.9056,4.42786 -2.50581,0.57826 -4.51919,-0.80321 -4.6502,-4.92728 -0.14815,-4.66353 0.49254,-7.9487 0.51424,-8.9801 0.0149,-0.70938 -0.32113,-1.50241 -0.8994,-1.59878 -0.57826,-0.0964 -1.24725,1.30566 -1.28042,2.07033 z"
       id="path1-0-8-1" />
    <g
       id="text6751"
       style="font-size:14.8167px;line-height:1.25;text-align:center;text-anchor:middle;stroke-width:0.264583"
       aria-label="brushtail.digital">
      <path
         style="font-family:'Noto Sans';-inkscape-font-specification:'Noto Sans'"
         d="m 257.95462,115.67877 q 0,0.50377 -0.0296,0.94827 -0.0148,0.42968 -0.0444,0.68157 h 0.0741 q 0.34078,-0.50377 0.93345,-0.84456 0.59267,-0.34078 1.52612,-0.34078 1.48167,0 2.37067,1.03717 0.90382,1.02235 0.90382,3.06706 0,1.36313 -0.41487,2.28177 -0.40005,0.91863 -1.14088,1.37795 -0.74084,0.45932 -1.71874,0.45932 -0.93345,0 -1.52612,-0.34079 -0.59267,-0.34078 -0.93345,-0.81491 H 257.851 l -0.2667,1.00753 h -0.93345 v -11.26069 h 1.30387 z m 2.23732,1.52612 q -0.84455,0 -1.3335,0.32597 -0.48895,0.31115 -0.69639,0.9779 -0.20743,0.65193 -0.20743,1.67429 v 0.0593 q 0,1.46686 0.47413,2.25214 0.48895,0.77047 1.79282,0.77047 1.06681,0 1.58539,-0.78529 0.5334,-0.78528 0.5334,-2.26695 0,-1.49649 -0.5334,-2.25214 -0.51858,-0.75565 -1.61502,-0.75565 z m 9.27525,-1.09644 q 0.22225,0 0.47413,0.0296 0.26671,0.0148 0.45932,0.0593 l -0.16298,1.20016 q -0.19262,-0.0444 -0.42969,-0.0741 -0.22225,-0.0296 -0.42968,-0.0296 -0.45932,0 -0.87418,0.19262 -0.41487,0.19261 -0.74084,0.54821 -0.32597,0.34079 -0.51858,0.82974 -0.1778,0.48895 -0.1778,1.09644 v 4.23757 h -1.30387 v -7.94175 h 1.0668 l 0.14816,1.45204 h 0.0593 q 0.25189,-0.4445 0.60749,-0.8001 0.3556,-0.37042 0.81491,-0.57786 0.45932,-0.22225 1.00754,-0.22225 z"
         id="path6755" />
      <path
         style="font-family:'Noto Sans';-inkscape-font-specification:'Noto Sans';letter-spacing:-0.264583px"
         d="m 278.5202,116.25662 v 7.94175 h -1.06681 l -0.19261,-1.05198 h -0.0593 q -0.25189,0.41486 -0.65194,0.68156 -0.40005,0.2667 -0.87418,0.38524 -0.47414,0.13335 -0.99272,0.13335 -0.94827,0 -1.6002,-0.29634 -0.63712,-0.31115 -0.96309,-0.94826 -0.32597,-0.63712 -0.32597,-1.64466 v -5.20066 h 1.31869 v 5.11176 q 0,0.94827 0.42968,1.42241 0.42969,0.47413 1.33351,0.47413 0.889,0 1.39277,-0.32597 0.51858,-0.34078 0.72601,-0.9779 0.22226,-0.65193 0.22226,-1.57057 v -4.13386 z m 7.42528,5.74888 q 0,0.77047 -0.38523,1.28905 -0.38524,0.51859 -1.09644,0.78529 -0.7112,0.2667 -1.6891,0.2667 -0.82974,0 -1.43722,-0.13335 -0.59267,-0.13335 -1.05199,-0.37042 v -1.18533 q 0.47414,0.23706 1.14089,0.4445 0.68157,0.19261 1.37795,0.19261 0.99272,0 1.43722,-0.31115 0.4445,-0.32596 0.4445,-0.85937 0,-0.29633 -0.16298,-0.5334 -0.16299,-0.23706 -0.59267,-0.47413 -0.41487,-0.23707 -1.20015,-0.5334 -0.77047,-0.29634 -1.31869,-0.59267 -0.54822,-0.29633 -0.84455,-0.7112 -0.29633,-0.41487 -0.29633,-1.0668 0,-1.00754 0.81491,-1.55576 0.82974,-0.54822 2.16324,-0.54822 0.72602,0 1.34832,0.14817 0.63712,0.13335 1.18534,0.38523 l -0.4445,1.03717 q -0.50377,-0.20743 -1.05199,-0.3556 -0.54822,-0.14816 -1.12607,-0.14816 -0.8001,0 -1.22978,0.2667 -0.41487,0.25188 -0.41487,0.69638 0,0.32597 0.19262,0.56304 0.19261,0.22225 0.63711,0.4445 0.45932,0.20743 1.21497,0.50376 0.75565,0.28152 1.28906,0.57786 0.5334,0.29633 0.81491,0.72601 0.28152,0.41487 0.28152,1.05199 z m 2.96546,-5.7637 q 0,0.28152 -0.0296,0.57786 -0.0148,0.29633 -0.0444,0.5334 h 0.0889 q 0.25188,-0.41487 0.63711,-0.68157 0.38524,-0.2667 0.85937,-0.40005 0.47414,-0.14817 0.9779,-0.14817 0.96309,0 1.60021,0.31115 0.65193,0.29634 0.9779,0.93345 0.32597,0.63712 0.32597,1.65947 v 5.17103 h -1.28905 v -5.08213 q 0,-0.96308 -0.42969,-1.43722 -0.42968,-0.47413 -1.34832,-0.47413 -0.889,0 -1.39277,0.34078 -0.50377,0.32597 -0.72602,0.97791 -0.20743,0.63711 -0.20743,1.57057 v 4.10422 h -1.30387 v -11.26069 h 1.30387 z"
         id="path6756" />
      <path
         style="font-family:'Noto Sans';-inkscape-font-specification:'Noto Sans';letter-spacing:0.264583px"
         d="m 299.1514,123.27974 q 0.29633,0 0.60748,-0.0444 0.31115,-0.0593 0.50377,-0.11854 v 0.99272 q -0.20743,0.10372 -0.59267,0.16299 -0.38523,0.0741 -0.74083,0.0741 -0.6223,0 -1.1557,-0.20743 -0.51859,-0.22226 -0.84456,-0.75566 -0.32596,-0.5334 -0.32596,-1.49648 v -4.62281 h -1.12607 v -0.62231 l 1.14088,-0.51858 0.51859,-1.6891 h 0.77047 v 1.82245 h 2.29658 v 1.00754 h -2.29658 v 4.59317 q 0,0.72602 0.34078,1.08162 0.3556,0.34079 0.90382,0.34079 z m 5.96901,-7.15647 q 1.45204,0 2.14842,0.63712 0.69639,0.63712 0.69639,2.02989 v 5.40809 h -0.94827 l -0.25189,-1.12607 h -0.0593 q -0.34079,0.42969 -0.7112,0.72602 -0.35561,0.28152 -0.82974,0.41487 -0.45932,0.13335 -1.12607,0.13335 -0.7112,0 -1.28905,-0.25189 -0.56304,-0.25188 -0.889,-0.77046 -0.32597,-0.5334 -0.32597,-1.33351 0,-1.18533 0.93345,-1.82245 0.93345,-0.65194 2.87444,-0.7112 l 1.34832,-0.0444 v -0.47414 q 0,-0.99272 -0.42968,-1.37795 -0.42969,-0.38523 -1.21497,-0.38523 -0.6223,0 -1.18534,0.19261 -0.56303,0.1778 -1.05198,0.41487 l -0.40006,-0.9779 q 0.51859,-0.28152 1.22979,-0.47414 0.7112,-0.20743 1.48167,-0.20743 z m 0.38523,4.23758 q -1.48167,0.0593 -2.05952,0.47413 -0.56303,0.41487 -0.56303,1.17052 0,0.66675 0.40005,0.9779 0.41487,0.31115 1.05199,0.31115 1.00753,0 1.67428,-0.54821 0.66675,-0.56304 0.66675,-1.71874 v -0.7112 z m 6.48761,-4.10423 v 7.94175 h -1.30387 v -7.94175 z m -0.63712,-2.97816 q 0.29634,0 0.51859,0.20744 0.23707,0.19261 0.23707,0.6223 0,0.41487 -0.23707,0.6223 -0.22225,0.20743 -0.51859,0.20743 -0.32596,0 -0.54821,-0.20743 -0.22225,-0.20743 -0.22225,-0.6223 0,-0.42969 0.22225,-0.6223 0.22225,-0.20744 0.54821,-0.20744 z m 4.72441,10.91991 h -1.30387 v -11.26069 h 1.30387 z"
         id="path6757" />
      <path
         style="font-weight:300;font-family:'Noto Sans';-inkscape-font-specification:'Noto Sans Light';letter-spacing:0.264583px"
         d="m 318.77505,123.63534 q 0,-0.37042 0.16298,-0.54822 0.16299,-0.1778 0.45932,-0.1778 0.32597,0 0.48895,0.1778 0.1778,0.1778 0.1778,0.54822 0,0.3556 -0.1778,0.54822 -0.16298,0.1778 -0.48895,0.1778 -0.29633,0 -0.45932,-0.1778 -0.16298,-0.19262 -0.16298,-0.54822 z m 6.84319,0.7112 q -1.58538,0 -2.44475,-1.00754 -0.84455,-1.02235 -0.84455,-2.99297 0,-2.0447 0.889,-3.11151 0.90382,-1.0668 2.47439,-1.0668 0.66675,0 1.1557,0.20743 0.48895,0.19262 0.82973,0.53341 0.35561,0.34078 0.54822,0.77046 h 0.0593 q -0.0148,-0.3556 -0.0445,-0.77046 -0.0148,-0.42969 -0.0148,-0.77047 v -3.20041 h 0.84455 v 11.26069 h -0.68156 l -0.11854,-1.37795 h -0.0444 q -0.20743,0.41487 -0.54822,0.77047 -0.34078,0.34078 -0.84455,0.54822 -0.50376,0.20743 -1.21497,0.20743 z m 0.10372,-0.72602 q 1.37795,0 1.94099,-0.82973 0.57785,-0.82974 0.57785,-2.40031 v -0.13335 q 0,-1.62984 -0.57785,-2.48921 -0.56304,-0.87418 -1.88172,-0.87418 -1.27424,0 -1.92617,0.90382 -0.65194,0.889 -0.65194,2.56329 0,1.6002 0.6223,2.42994 0.6223,0.82973 1.89654,0.82973 z m 7.03582,-7.30463 v 7.88248 h -0.82973 v -7.88248 z m -0.41487,-2.91889 q 0.28152,0 0.42969,0.1778 0.14817,0.16298 0.14817,0.45932 0,0.31115 -0.14817,0.48895 -0.14817,0.16298 -0.42969,0.16298 -0.2667,0 -0.41486,-0.16298 -0.14817,-0.1778 -0.14817,-0.48895 0,-0.29634 0.14817,-0.45932 0.14816,-0.1778 0.41486,-0.1778 z m 6.19127,2.77072 q 0.93345,0 1.54093,0.37042 0.60749,0.3556 0.97791,0.9779 h 0.0593 l 0.11854,-1.20015 h 0.68156 v 8.13437 q 0,1.03716 -0.3556,1.76318 -0.3556,0.74084 -1.11125,1.14089 -0.74083,0.40005 -1.94099,0.40005 -0.87418,0 -1.57057,-0.14817 -0.68156,-0.14816 -1.22978,-0.38523 v -0.81492 q 0.54822,0.28152 1.27423,0.4445 0.72602,0.1778 1.57057,0.1778 1.30387,0 1.91136,-0.68157 0.6223,-0.68156 0.6223,-1.83727 v -0.47413 q 0,-0.31115 0,-0.6223 0.0148,-0.32597 0.0296,-0.60749 h -0.0444 q -0.34078,0.75565 -1.00753,1.1557 -0.66675,0.38524 -1.62984,0.38524 -1.52612,0 -2.38549,-1.03717 -0.85937,-1.03717 -0.85937,-2.97816 0,-1.92617 0.85937,-3.03742 0.87419,-1.12607 2.48921,-1.12607 z m 0.0889,0.72602 q -0.85937,0 -1.43722,0.41487 -0.56304,0.40005 -0.84455,1.17052 -0.28152,0.75565 -0.28152,1.85208 0,1.61502 0.63712,2.45958 0.63711,0.84455 1.82245,0.84455 0.75565,0 1.2446,-0.22225 0.48895,-0.23707 0.77047,-0.65194 0.29634,-0.41487 0.41487,-0.9779 0.13335,-0.57785 0.13335,-1.22979 v -0.51858 q 0,-1.00754 -0.23707,-1.70392 -0.23707,-0.69639 -0.78528,-1.0668 -0.5334,-0.37042 -1.43722,-0.37042 z m 6.99138,-0.57785 v 7.88248 h -0.82974 v -7.88248 z m -0.41487,-2.91889 q 0.28152,0 0.42968,0.1778 0.14817,0.16298 0.14817,0.45932 0,0.31115 -0.14817,0.48895 -0.14816,0.16298 -0.42968,0.16298 -0.2667,0 -0.41487,-0.16298 -0.14817,-0.1778 -0.14817,-0.48895 0,-0.29634 0.14817,-0.45932 0.14817,-0.1778 0.41487,-0.1778 z m 5.52451,10.23834 q 0.32597,0 0.6223,-0.0444 0.29633,-0.0593 0.51859,-0.13335 v 0.68157 q -0.22226,0.0889 -0.56304,0.14816 -0.32597,0.0593 -0.69638,0.0593 -0.65194,0 -1.11126,-0.23707 -0.45931,-0.25188 -0.7112,-0.77047 -0.23707,-0.51858 -0.23707,-1.3335 v -5.00804 h -1.1557 v -0.47414 l 1.1557,-0.2667 0.31116,-1.82245 h 0.5334 v 1.88172 h 2.42994 v 0.68157 h -2.42994 v 4.97841 q 0,0.81492 0.32596,1.2446 0.32597,0.41487 1.00754,0.41487 z m 5.8653,-7.4528 q 1.3335,0 1.98543,0.65193 0.65194,0.65194 0.65194,2.07434 v 5.28956 h -0.63712 l -0.14817,-1.3335 h -0.0445 q -0.28151,0.4445 -0.65193,0.78528 -0.3556,0.32597 -0.87419,0.51859 -0.50376,0.1778 -1.2446,0.1778 -0.74083,0 -1.28905,-0.25189 -0.54822,-0.2667 -0.84455,-0.75565 -0.29634,-0.48895 -0.29634,-1.20015 0,-1.17052 0.96309,-1.778 0.96308,-0.6223 2.80035,-0.71121 l 1.43722,-0.0593 v -0.56304 q 0,-1.17052 -0.47413,-1.64465 -0.45932,-0.48895 -1.37795,-0.48895 -0.60749,0 -1.17052,0.16298 -0.54822,0.14817 -1.11126,0.42969 l -0.2667,-0.66675 q 0.54822,-0.28152 1.21497,-0.45932 0.66675,-0.1778 1.37796,-0.1778 z m 0.45931,4.08941 q -1.49648,0.0741 -2.23732,0.5334 -0.74083,0.4445 -0.74083,1.34832 0,0.72602 0.45931,1.11125 0.45932,0.37042 1.24461,0.37042 1.25942,0 1.92617,-0.69639 0.68157,-0.69638 0.69638,-1.9558 v -0.77047 z m 5.80602,3.92642 h -0.84455 v -11.26069 h 0.84455 z"
         id="path6758" />
    </g>
  </g>
</svg>
